<?xml version="1.0" encoding="UTF-8"?>
<!DOCTYPE svg PUBLIC "-//W3C//DTD SVG 1.1//EN" "http://www.w3.org/Graphics/SVG/1.1/DTD/svg11.dtd">
<svg xmlns="http://www.w3.org/2000/svg" version="1.1" width="137px" height="117px" style="shape-rendering:geometricPrecision; text-rendering:geometricPrecision; image-rendering:optimizeQuality; fill-rule:evenodd; clip-rule:evenodd" xmlns:xlink="http://www.w3.org/1999/xlink">
<g><path style="opacity:1" fill="#fcfcfc" d="M -0.5,-0.5 C 45.1667,-0.5 90.8333,-0.5 136.5,-0.5C 136.5,38.5 136.5,77.5 136.5,116.5C 90.8333,116.5 45.1667,116.5 -0.5,116.5C -0.5,94.1667 -0.5,71.8333 -0.5,49.5C 0.5,49.5 1.5,49.5 2.5,49.5C 2.05087,52.2898 2.05087,54.9564 2.5,57.5C 3.08605,57.2907 3.58605,56.9574 4,56.5C 5.74823,58.1352 6.9149,60.1352 7.5,62.5C 8.73619,61.7542 10.0695,61.4208 11.5,61.5C 12.3686,63.717 12.702,66.0504 12.5,68.5C 11.6016,69.1577 10.6016,69.8243 9.5,70.5C 9.05755,74.3197 9.72422,77.9864 11.5,81.5C 14.5305,83.9315 17.8639,85.2649 21.5,85.5C 22.515,82.8323 24.1817,82.1656 26.5,83.5C 25.3698,84.6223 24.7031,85.9557 24.5,87.5C 25.5,88.8333 26.5,90.1667 27.5,91.5C 27.0766,92.2646 26.7432,93.0979 26.5,94C 27.5549,95.5072 28.5549,97.0072 29.5,98.5C 23.3858,100.837 22.3858,104.503 26.5,109.5C 31.8746,112.285 35.5412,110.619 37.5,104.5C 36.1681,101.443 34.1681,99.1099 31.5,97.5C 32.1667,96.8333 32.8333,96.1667 33.5,95.5C 35.6621,95.8972 36.9954,97.2305 37.5,99.5C 40.1045,97.942 42.4378,98.2753 44.5,100.5C 45.2621,99.3717 45.9288,98.2051 46.5,97C 48.3126,97.0464 49.9793,96.8797 51.5,96.5C 50.289,93.5855 51.289,91.5855 54.5,90.5C 53.6906,88.9291 53.3573,87.2624 53.5,85.5C 55.045,86.2297 55.8784,87.563 56,89.5C 57.6667,90.8333 59.3333,90.8333 61,89.5C 61.21,87.9419 61.71,86.6085 62.5,85.5C 75.556,92.0695 87.556,90.5695 98.5,81C 108.764,81.7579 118.43,79.7579 127.5,75C 132.025,71.2733 134.359,66.4399 134.5,60.5C 133.592,38.2755 122.592,23.9421 101.5,17.5C 97.8887,9.80721 92.0554,7.47388 84,10.5C 73.1946,4.84276 61.6946,3.00943 49.5,5C 40.2592,7.92565 31.2592,11.5923 22.5,16C 17.0474,19.4503 13.0474,24.117 10.5,30C 10.7432,30.9021 11.0766,31.7354 11.5,32.5C 12.8333,33.8333 12.8333,35.1667 11.5,36.5C 9.85703,36.5198 8.5237,35.8532 7.5,34.5C 6.7022,36.0777 6.2022,37.7444 6,39.5C 4.49051,40.0897 2.99051,40.7564 1.5,41.5C 2.34822,43.4086 2.68155,45.4086 2.5,47.5C 1.5,47.5 0.5,47.5 -0.5,47.5C -0.5,31.5 -0.5,15.5 -0.5,-0.5 Z"/></g>
<g><path style="opacity:1" fill="#292929" d="M 11.5,61.5 C 10.0695,61.4208 8.73619,61.7542 7.5,62.5C 6.9149,60.1352 5.74823,58.1352 4,56.5C 3.58605,56.9574 3.08605,57.2907 2.5,57.5C 2.05087,54.9564 2.05087,52.2898 2.5,49.5C 1.5,49.5 0.5,49.5 -0.5,49.5C -0.5,48.8333 -0.5,48.1667 -0.5,47.5C 0.5,47.5 1.5,47.5 2.5,47.5C 2.68155,45.4086 2.34822,43.4086 1.5,41.5C 2.99051,40.7564 4.49051,40.0897 6,39.5C 6.2022,37.7444 6.7022,36.0777 7.5,34.5C 8.5237,35.8532 9.85703,36.5198 11.5,36.5C 12.8589,35.9935 13.8589,34.9935 14.5,33.5C 16.1433,36.4947 18.4767,37.1614 21.5,35.5C 21.8333,39.1667 23.8333,41.1667 27.5,41.5C 26.1111,44.3418 26.7778,46.6751 29.5,48.5C 26.6112,50.8987 26.2779,53.3987 28.5,56C 24.4104,56.2557 22.0771,58.4224 21.5,62.5C 19.108,60.3689 16.7746,60.7023 14.5,63.5C 13.7348,62.3881 12.7348,61.7214 11.5,61.5 Z"/></g>
<g><path style="opacity:1" fill="#c1c1c1" d="M 11.5,39.5 C 20.5298,39.3583 24.3631,43.6916 23,52.5C 22.2155,54.286 21.0488,55.786 19.5,57C 8.13291,59.082 3.96624,54.582 7,43.5C 8.39683,41.9297 9.89683,40.5964 11.5,39.5 Z"/></g>
<g><path style="opacity:1" fill="#262626" d="M 11.5,41.5 C 18.6738,40.5187 22.1738,43.5187 22,50.5C 17.8127,58.073 13.146,58.4064 8,51.5C 7.33333,49.5 7.33333,47.5 8,45.5C 9.37561,44.2949 10.5423,42.9616 11.5,41.5 Z"/></g>
<g><path style="opacity:1" fill="#e7e7e7" d="M 12.5,45.5 C 16.9083,45.062 18.5749,47.062 17.5,51.5C 12.0738,52.4161 10.4071,50.4161 12.5,45.5 Z"/></g>
<g><path style="opacity:1" fill="#e4e3e3" d="M 39.5,42.5 C 39.0805,44.0936 38.4138,45.5936 37.5,47C 37.6448,47.772 37.9781,48.4387 38.5,49C 36.9419,49.21 35.6085,49.71 34.5,50.5C 30.5464,51.8073 29.5464,54.4739 31.5,58.5C 34.6474,62.2576 37.8141,62.2576 41,58.5C 41.1667,57.3333 41.3333,56.1667 41.5,55C 41.3917,53.3189 40.7251,52.1522 39.5,51.5C 41.3167,49.9878 42.3167,47.9878 42.5,45.5C 43.7079,46.2341 45.0413,46.5674 46.5,46.5C 46.6567,45.1266 46.49,43.7932 46,42.5C 43.889,40.8983 42.389,38.8983 41.5,36.5C 43.1848,32.3451 43.8514,28.0118 43.5,23.5C 44.1667,25.8333 44.8333,28.1667 45.5,30.5C 43.5369,34.2843 44.5369,36.1177 48.5,36C 49.6364,34.8549 50.6364,33.6883 51.5,32.5C 52.1,35.298 53.1,37.9646 54.5,40.5C 49.7336,43.7708 46.2336,48.1041 44,53.5C 43.5065,55.1341 43.3398,56.8008 43.5,58.5C 44.8333,58.5 46.1667,58.5 47.5,58.5C 48.2169,52.0309 51.5502,47.6976 57.5,45.5C 62.1304,44.7705 66.7971,44.4372 71.5,44.5C 72.2122,46.9279 73.2122,49.2612 74.5,51.5C 66.4667,53.177 60.1334,57.3436 55.5,64C 55,64.1667 54.5,64.3333 54,64.5C 52.5805,62.5781 50.7472,61.2448 48.5,60.5C 46.3472,60.5613 45.0138,61.5613 44.5,63.5C 43.2072,65.3635 43.2072,67.3635 44.5,69.5C 49.1126,72.2901 52.2792,70.9567 54,65.5C 54.4828,66.448 54.6495,67.448 54.5,68.5C 55.8734,68.6567 57.2068,68.49 58.5,68C 61.0012,62.2386 65.3345,58.5719 71.5,57C 73.5,56.3333 75.5,56.3333 77.5,57C 79.7319,59.7349 82.3986,61.9016 85.5,63.5C 87.4865,68.8034 90.4865,73.47 94.5,77.5C 90.2926,82.6824 84.7926,85.0158 78,84.5C 70.8492,84.3386 64.3492,82.172 58.5,78C 57.2068,77.51 55.8734,77.3433 54.5,77.5C 54.6871,80.6905 56.3538,82.6905 59.5,83.5C 59.0831,84.1239 58.4164,84.4573 57.5,84.5C 55.9436,83.4529 54.2769,82.7863 52.5,82.5C 51.7659,81.2921 51.4326,79.9587 51.5,78.5C 53.8176,76.8148 54.8176,74.4815 54.5,71.5C 49.719,71.1666 48.3857,73.1666 50.5,77.5C 48.0025,77.2732 46.3359,75.9398 45.5,73.5C 43.5,76.1667 41.5,76.1667 39.5,73.5C 37.7539,75.8541 35.4206,76.8541 32.5,76.5C 33.1571,79.8408 31.8237,81.8408 28.5,82.5C 31.0142,84.7988 31.0142,87.1321 28.5,89.5C 29.5,90.1667 30.5,90.8333 31.5,91.5C 32.6527,92.6868 32.6527,93.6868 31.5,94.5C 30.7638,92.7706 29.4305,91.7706 27.5,91.5C 26.5,90.1667 25.5,88.8333 24.5,87.5C 25.6879,88.6843 26.8545,88.6843 28,87.5C 27.7468,84.867 27.7468,82.2004 28,79.5C 28.7504,78.8742 29.5838,78.3742 30.5,78C 29.0091,75.9783 29.3424,74.3117 31.5,73C 28.9447,71.742 28.2781,69.9086 29.5,67.5C 27.9547,66.5481 26.288,66.2148 24.5,66.5C 24.9354,63.3873 23.9354,62.7207 21.5,64.5C 19.8704,62.3185 18.5371,62.3185 17.5,64.5C 16.3112,65.4287 14.9778,65.762 13.5,65.5C 13.7373,66.791 13.404,67.791 12.5,68.5C 12.702,66.0504 12.3686,63.717 11.5,61.5C 12.7348,61.7214 13.7348,62.3881 14.5,63.5C 16.7746,60.7023 19.108,60.3689 21.5,62.5C 22.0771,58.4224 24.4104,56.2557 28.5,56C 26.2779,53.3987 26.6112,50.8987 29.5,48.5C 26.7778,46.6751 26.1111,44.3418 27.5,41.5C 23.8333,41.1667 21.8333,39.1667 21.5,35.5C 18.4767,37.1614 16.1433,36.4947 14.5,33.5C 13.8589,34.9935 12.8589,35.9935 11.5,36.5C 12.8333,35.1667 12.8333,33.8333 11.5,32.5C 15.9168,28.5854 20.2502,24.4187 24.5,20C 30.0755,18.5284 34.9089,19.6951 39,23.5C 39.6667,25.8333 39.6667,28.1667 39,30.5C 36.8295,34.8441 34.1628,38.8441 31,42.5C 30.5065,44.1341 30.3398,45.8008 30.5,47.5C 31.8333,47.5 33.1667,47.5 34.5,47.5C 34.954,44.8602 36.1207,42.5268 38,40.5C 38.7172,41.0442 39.2172,41.7109 39.5,42.5 Z"/></g>
<g><path style="opacity:1" fill="#5c5c5c" d="M 52.5,51.5 C 58.1581,50.6794 59.8248,52.846 57.5,58C 53.9413,60.1992 51.608,59.1992 50.5,55C 50.8618,53.5657 51.5285,52.3991 52.5,51.5 Z"/></g>
<g><path style="opacity:1" fill="#797978" d="M 39.5,42.5 C 40.8333,43.1667 41.8333,44.1667 42.5,45.5C 42.3167,47.9878 41.3167,49.9878 39.5,51.5C 37.9582,50.6993 36.2915,50.366 34.5,50.5C 35.6085,49.71 36.9419,49.21 38.5,49C 37.9781,48.4387 37.6448,47.772 37.5,47C 38.4138,45.5936 39.0805,44.0936 39.5,42.5 Z"/></g>
<g><path style="opacity:1" fill="#3b3b3b" d="M 27.5,23.5 C 33.8605,23.9989 35.8605,27.3322 33.5,33.5C 27.9162,36.7088 24.5829,35.0422 23.5,28.5C 24.5076,26.5008 25.841,24.8342 27.5,23.5 Z"/></g>
<g><path style="opacity:1" fill="#828282" d="M 27.5,25.5 C 28.2216,25.9175 28.7216,26.5842 29,27.5C 30.1544,25.0426 31.4877,25.0426 33,27.5C 33.3333,33.5 31,34.8333 26,31.5C 25.2516,29.1599 25.7516,27.1599 27.5,25.5 Z"/></g>
<g><path style="opacity:1" fill="#444444" d="M 34.5,50.5 C 36.2915,50.366 37.9582,50.6993 39.5,51.5C 40.7251,52.1522 41.3917,53.3189 41.5,55C 41.3333,56.1667 41.1667,57.3333 41,58.5C 37.8141,62.2576 34.6474,62.2576 31.5,58.5C 29.5464,54.4739 30.5464,51.8073 34.5,50.5 Z"/></g>
<g><path style="opacity:1" fill="#949494" d="M 36.5,51.5 C 40.4763,54.2313 40.4763,56.898 36.5,59.5C 33.1359,58.856 31.9693,56.856 33,53.5C 34,52.1667 35,52.1667 36,53.5C 36.4643,52.9056 36.631,52.2389 36.5,51.5 Z"/></g>
<g><path style="opacity:1" fill="#3d3636" d="M 62.5,85.5 C 61.7095,84.5987 60.7095,83.9321 59.5,83.5C 56.3538,82.6905 54.6871,80.6905 54.5,77.5C 55.8734,77.3433 57.2068,77.51 58.5,78C 64.3492,82.172 70.8492,84.3386 78,84.5C 84.7926,85.0158 90.2926,82.6824 94.5,77.5C 90.4865,73.47 87.4865,68.8034 85.5,63.5C 82.3986,61.9016 79.7319,59.7349 77.5,57C 75.5,56.3333 73.5,56.3333 71.5,57C 65.3345,58.5719 61.0012,62.2386 58.5,68C 57.2068,68.49 55.8734,68.6567 54.5,68.5C 54.6495,67.448 54.4828,66.448 54,65.5C 52.2792,70.9567 49.1126,72.2901 44.5,69.5C 43.2072,67.3635 43.2072,65.3635 44.5,63.5C 45.0138,61.5613 46.3472,60.5613 48.5,60.5C 50.7472,61.2448 52.5805,62.5781 54,64.5C 54.5,64.3333 55,64.1667 55.5,64C 60.1334,57.3436 66.4667,53.177 74.5,51.5C 73.2122,49.2612 72.2122,46.9279 71.5,44.5C 69.866,43.8389 68.0326,43.5056 66,43.5C 62.8502,43.3603 60.0169,44.027 57.5,45.5C 51.5502,47.6976 48.2169,52.0309 47.5,58.5C 46.1667,58.5 44.8333,58.5 43.5,58.5C 43.3398,56.8008 43.5065,55.1341 44,53.5C 46.2336,48.1041 49.7336,43.7708 54.5,40.5C 53.1,37.9646 52.1,35.298 51.5,32.5C 51.5,30.1667 51.5,27.8333 51.5,25.5C 54.2345,24.0156 55.7345,25.0156 56,28.5C 61.3477,25.8048 63.5143,21.4714 62.5,15.5C 63.8333,15.5 65.1667,15.5 66.5,15.5C 66.8368,19.3076 66.3368,22.9743 65,26.5C 62.4684,29.3663 59.6351,31.8663 56.5,34C 56.9903,35.982 57.9903,37.6487 59.5,39C 63.1516,39.4986 66.8183,39.6653 70.5,39.5C 70.5,37.1667 70.5,34.8333 70.5,32.5C 71.8221,32.33 72.9887,32.6634 74,33.5C 74.5978,42.9749 78.0978,51.1415 84.5,58C 87.5757,56.9755 90.2424,54.9755 92.5,52C 95.0915,51.6992 95.9248,52.8659 95,55.5C 89.3426,63.4742 90.8426,69.9742 99.5,75C 108.714,77.5339 117.381,76.2005 125.5,71C 129.128,67.2075 130.294,62.7075 129,57.5C 126.93,59.7868 124.43,61.4534 121.5,62.5C 121.051,66.0832 119.718,69.2498 117.5,72C 116.207,72.49 114.873,72.6567 113.5,72.5C 114.217,69.6771 115.217,67.0104 116.5,64.5C 110.485,65.1974 104.818,64.1974 99.5,61.5C 98.5713,60.3112 98.238,58.9778 98.5,57.5C 105.021,59.3707 111.687,59.8707 118.5,59C 125.575,56.687 128.408,51.8537 127,44.5C 122.637,34.6366 115.47,27.6366 105.5,23.5C 106.88,28.4395 110.046,32.4395 115,35.5C 115.49,36.7932 115.657,38.1266 115.5,39.5C 114.448,39.6495 113.448,39.4828 112.5,39C 108.951,35.9426 105.284,33.1093 101.5,30.5C 95.9684,31.7682 92.3017,35.1015 90.5,40.5C 89.3112,41.4287 87.9778,41.762 86.5,41.5C 86.1437,38.4359 86.9771,35.7693 89,33.5C 92.4401,30.5382 95.9401,27.7048 99.5,25C 98.3445,15.9213 93.3445,12.5879 84.5,15C 83.3333,16.1667 82.1667,17.3333 81,18.5C 80.6667,21.8333 80.3333,25.1667 80,28.5C 77.9098,29.7908 76.5764,29.1242 76,26.5C 74.9252,21.9094 75.7585,17.7428 78.5,14C 75.4279,11.1909 71.7612,9.52423 67.5,9C 62.1667,8.33333 56.8333,8.33333 51.5,9C 50.376,9.24917 49.376,9.74917 48.5,10.5C 50.7908,12.2878 52.9575,14.2878 55,16.5C 55.8542,18.6073 55.1875,19.9407 53,20.5C 48.6372,15.4005 43.1372,13.2338 36.5,14C 35.6919,14.3076 35.0253,14.8076 34.5,15.5C 38.7811,16.7839 41.7811,19.4506 43.5,23.5C 43.8514,28.0118 43.1848,32.3451 41.5,36.5C 42.389,38.8983 43.889,40.8983 46,42.5C 46.49,43.7932 46.6567,45.1266 46.5,46.5C 45.0413,46.5674 43.7079,46.2341 42.5,45.5C 41.8333,44.1667 40.8333,43.1667 39.5,42.5C 39.2172,41.7109 38.7172,41.0442 38,40.5C 36.1207,42.5268 34.954,44.8602 34.5,47.5C 33.1667,47.5 31.8333,47.5 30.5,47.5C 30.3398,45.8008 30.5065,44.1341 31,42.5C 34.1628,38.8441 36.8295,34.8441 39,30.5C 39.6667,28.1667 39.6667,25.8333 39,23.5C 34.9089,19.6951 30.0755,18.5284 24.5,20C 20.2502,24.4187 15.9168,28.5854 11.5,32.5C 11.0766,31.7354 10.7432,30.9021 10.5,30C 13.0474,24.117 17.0474,19.4503 22.5,16C 31.2592,11.5923 40.2592,7.92565 49.5,5C 61.6946,3.00943 73.1946,4.84276 84,10.5C 92.0554,7.47388 97.8887,9.80721 101.5,17.5C 122.592,23.9421 133.592,38.2755 134.5,60.5C 134.359,66.4399 132.025,71.2733 127.5,75C 118.43,79.7579 108.764,81.7579 98.5,81C 87.556,90.5695 75.556,92.0695 62.5,85.5 Z"/></g>
<g><path style="opacity:1" fill="#767676" d="M 62.5,46.5 C 67.2411,46.1614 68.5744,48.1614 66.5,52.5C 61.8268,53.1283 60.4935,51.1283 62.5,46.5 Z"/></g>
<g><path style="opacity:1" fill="#8d8988" d="M 71.5,44.5 C 66.7971,44.4372 62.1304,44.7705 57.5,45.5C 60.0169,44.027 62.8502,43.3603 66,43.5C 68.0326,43.5056 69.866,43.8389 71.5,44.5 Z"/></g>
<g><path style="opacity:1" fill="#626262" d="M 47.5,37.5 C 51.6759,36.8307 53.0093,38.3307 51.5,42C 50.2068,42.49 48.8734,42.6567 47.5,42.5C 47.5,40.8333 47.5,39.1667 47.5,37.5 Z"/></g>
<g><path style="opacity:1" fill="#737373" d="M 51.5,25.5 C 51.5,27.8333 51.5,30.1667 51.5,32.5C 50.6364,33.6883 49.6364,34.8549 48.5,36C 44.5369,36.1177 43.5369,34.2843 45.5,30.5C 46.8016,29.1931 48.135,29.1931 49.5,30.5C 50.1698,28.7086 50.8365,27.0419 51.5,25.5 Z"/></g>
<g><path style="opacity:1" fill="#f7f7f7" d="M 51.5,25.5 C 50.8365,27.0419 50.1698,28.7086 49.5,30.5C 48.135,29.1931 46.8016,29.1931 45.5,30.5C 44.8333,28.1667 44.1667,25.8333 43.5,23.5C 41.7811,19.4506 38.7811,16.7839 34.5,15.5C 35.0253,14.8076 35.6919,14.3076 36.5,14C 43.1372,13.2338 48.6372,15.4005 53,20.5C 55.1875,19.9407 55.8542,18.6073 55,16.5C 52.9575,14.2878 50.7908,12.2878 48.5,10.5C 49.376,9.74917 50.376,9.24917 51.5,9C 56.8333,8.33333 62.1667,8.33333 67.5,9C 71.7612,9.52423 75.4279,11.1909 78.5,14C 75.7585,17.7428 74.9252,21.9094 76,26.5C 76.5764,29.1242 77.9098,29.7908 80,28.5C 80.3333,25.1667 80.6667,21.8333 81,18.5C 82.1667,17.3333 83.3333,16.1667 84.5,15C 93.3445,12.5879 98.3445,15.9213 99.5,25C 95.9401,27.7048 92.4401,30.5382 89,33.5C 86.9771,35.7693 86.1437,38.4359 86.5,41.5C 87.9778,41.762 89.3112,41.4287 90.5,40.5C 92.3017,35.1015 95.9684,31.7682 101.5,30.5C 105.284,33.1093 108.951,35.9426 112.5,39C 113.448,39.4828 114.448,39.6495 115.5,39.5C 115.657,38.1266 115.49,36.7932 115,35.5C 110.046,32.4395 106.88,28.4395 105.5,23.5C 115.47,27.6366 122.637,34.6366 127,44.5C 128.408,51.8537 125.575,56.687 118.5,59C 111.687,59.8707 105.021,59.3707 98.5,57.5C 98.238,58.9778 98.5713,60.3112 99.5,61.5C 104.818,64.1974 110.485,65.1974 116.5,64.5C 115.217,67.0104 114.217,69.6771 113.5,72.5C 114.873,72.6567 116.207,72.49 117.5,72C 119.718,69.2498 121.051,66.0832 121.5,62.5C 124.43,61.4534 126.93,59.7868 129,57.5C 130.294,62.7075 129.128,67.2075 125.5,71C 117.381,76.2005 108.714,77.5339 99.5,75C 90.8426,69.9742 89.3426,63.4742 95,55.5C 95.9248,52.8659 95.0915,51.6992 92.5,52C 90.2424,54.9755 87.5757,56.9755 84.5,58C 78.0978,51.1415 74.5978,42.9749 74,33.5C 72.9887,32.6634 71.8221,32.33 70.5,32.5C 70.5,34.8333 70.5,37.1667 70.5,39.5C 66.8183,39.6653 63.1516,39.4986 59.5,39C 57.9903,37.6487 56.9903,35.982 56.5,34C 59.6351,31.8663 62.4684,29.3663 65,26.5C 66.3368,22.9743 66.8368,19.3076 66.5,15.5C 65.1667,15.5 63.8333,15.5 62.5,15.5C 63.5143,21.4714 61.3477,25.8048 56,28.5C 55.7345,25.0156 54.2345,24.0156 51.5,25.5 Z"/></g>
<g><path style="opacity:1" fill="#626262" d="M 26.5,60.5 C 30.1378,59.7366 31.6378,61.0699 31,64.5C 27.3307,66.0093 25.8307,64.6759 26.5,60.5 Z"/></g>
<g><path style="opacity:1" fill="#666666" d="M 6.5,63.5 C 7.83333,63.5 9.16667,63.5 10.5,63.5C 10.5,65.1667 10.5,66.8333 10.5,68.5C 6.06505,69.0776 4.73171,67.4109 6.5,63.5 Z"/></g>
<g><path style="opacity:1" fill="#2c2c2c" d="M 24.5,87.5 C 24.7031,85.9557 25.3698,84.6223 26.5,83.5C 24.1817,82.1656 22.515,82.8323 21.5,85.5C 17.8639,85.2649 14.5305,83.9315 11.5,81.5C 9.72422,77.9864 9.05755,74.3197 9.5,70.5C 10.6016,69.8243 11.6016,69.1577 12.5,68.5C 13.404,67.791 13.7373,66.791 13.5,65.5C 14.9778,65.762 16.3112,65.4287 17.5,64.5C 18.5371,62.3185 19.8704,62.3185 21.5,64.5C 23.9354,62.7207 24.9354,63.3873 24.5,66.5C 26.288,66.2148 27.9547,66.5481 29.5,67.5C 28.2781,69.9086 28.9447,71.742 31.5,73C 29.3424,74.3117 29.0091,75.9783 30.5,78C 29.5838,78.3742 28.7504,78.8742 28,79.5C 27.7468,82.2004 27.7468,84.867 28,87.5C 26.8545,88.6843 25.6879,88.6843 24.5,87.5 Z"/></g>
<g><path style="opacity:1" fill="#959595" d="M 44.5,63.5 C 49.8308,61.4797 51.8308,63.1464 50.5,68.5C 46.206,69.8863 44.206,68.2196 44.5,63.5 Z"/></g>
<g><path style="opacity:1" fill="#2e2e2e" d="M 71.5,60.5 C 72.7564,60.9038 73.9231,61.5705 75,62.5C 77.411,60.8466 78.5777,61.5133 78.5,64.5C 79.8333,64.5 81.1667,64.5 82.5,64.5C 82.1412,66.7659 82.8078,68.5993 84.5,70C 82.3424,71.3117 82.0091,72.9783 83.5,75C 81.1128,75.9761 79.9461,77.8094 80,80.5C 77.9783,79.0091 76.3117,79.3424 75,81.5C 73.3333,80.1667 71.6667,80.1667 70,81.5C 69.5172,80.552 69.3505,79.552 69.5,78.5C 68.1667,78.5 66.8333,78.5 65.5,78.5C 65.7711,76.1789 65.1045,74.1789 63.5,72.5C 65.6364,71.1483 65.9698,69.4817 64.5,67.5C 66.6365,66.5276 67.8032,64.8609 68,62.5C 69.0113,63.3366 70.1779,63.67 71.5,63.5C 71.5,62.5 71.5,61.5 71.5,60.5 Z"/></g>
<g><path style="opacity:1" fill="#d8d8d8" d="M 71.5,65.5 C 72.7759,66.3864 72.7759,67.3864 71.5,68.5C 70.8165,68.1373 70.1499,67.8039 69.5,67.5C 69.8333,66.5 70.5,65.8333 71.5,65.5 Z"/></g>
<g><path style="opacity:1" fill="#555555" d="M 71.5,65.5 C 73.1667,64.1667 74.8333,64.1667 76.5,65.5C 77.7095,65.9321 78.7095,66.5987 79.5,67.5C 77.9519,67.8212 77.2852,68.8212 77.5,70.5C 76.8333,71.1667 76.1667,71.8333 75.5,72.5C 75.5,71.5 75.5,70.5 75.5,69.5C 73.6536,69.2222 72.3202,69.8888 71.5,71.5C 72.3202,73.1112 73.6536,73.7778 75.5,73.5C 76.1667,73.5 76.8333,73.5 77.5,73.5C 78.1667,73.5 78.5,73.8333 78.5,74.5C 78.6716,75.4916 78.3382,76.1583 77.5,76.5C 77.6309,75.6236 77.2975,74.9569 76.5,74.5C 75.6143,75.325 75.281,76.325 75.5,77.5C 74.0387,78.6857 72.7054,78.6857 71.5,77.5C 70.2905,77.0679 69.2905,76.4013 68.5,75.5C 70.4646,75.0517 70.7979,74.0517 69.5,72.5C 68.7025,72.9569 68.3691,73.6236 68.5,74.5C 67.596,73.791 67.2627,72.791 67.5,71.5C 71.0048,71.3059 71.3382,70.3059 68.5,68.5C 68.5,67.8333 68.8333,67.5 69.5,67.5C 70.1499,67.8039 70.8165,68.1373 71.5,68.5C 72.7759,67.3864 72.7759,66.3864 71.5,65.5 Z"/></g>
<g><path style="opacity:1" fill="#d4d4d4" d="M 76.5,65.5 C 76.0517,67.4646 75.0517,67.7979 73.5,66.5C 74.325,65.6143 75.325,65.281 76.5,65.5 Z"/></g>
<g><path style="opacity:1" fill="#d7d7d7" d="M 79.5,67.5 C 79.7148,69.1788 79.0481,70.1788 77.5,70.5C 77.2852,68.8212 77.9519,67.8212 79.5,67.5 Z"/></g>
<g><path style="opacity:1" fill="#d6d6d6" d="M 20.5,67.5 C 22.1788,67.2852 23.1788,67.9519 23.5,69.5C 21.4017,70.9143 20.4017,70.2476 20.5,67.5 Z"/></g>
<g><path style="opacity:1" fill="#5d5d5d" d="M 35.5,63.5 C 41.6372,66.1447 41.8039,69.1447 36,72.5C 31.5288,69.6696 31.3622,66.6696 35.5,63.5 Z"/></g>
<g><path style="opacity:1" fill="#ebebeb" d="M 75.5,72.5 C 75.5,72.8333 75.5,73.1667 75.5,73.5C 73.6536,73.7778 72.3202,73.1112 71.5,71.5C 72.3202,69.8888 73.6536,69.2222 75.5,69.5C 75.5,70.5 75.5,71.5 75.5,72.5 Z"/></g>
<g><path style="opacity:1" fill="#dcdcdc" d="M 24.5,69.5 C 25.9063,69.9731 26.573,70.9731 26.5,72.5C 23.7524,72.5983 23.0857,71.5983 24.5,69.5 Z"/></g>
<g><path style="opacity:1" fill="#bfbfbf" d="M 68.5,68.5 C 71.3382,70.3059 71.0048,71.3059 67.5,71.5C 67.2627,70.209 67.596,69.209 68.5,68.5 Z"/></g>
<g><path style="opacity:1" fill="#f0f0f0" d="M 18.5,72.5 C 19.8333,72.5 21.1667,72.5 22.5,72.5C 22.8333,75.5 21.5,76.8333 18.5,76.5C 18.5,75.5 18.5,74.5 18.5,73.5C 18.5,73.1667 18.5,72.8333 18.5,72.5 Z"/></g>
<g><path style="opacity:1" fill="#747474" d="M 58.5,69.5 C 63.3105,71.253 63.6439,73.5863 59.5,76.5C 57.2606,76.4257 56.2606,75.259 56.5,73C 56.8618,71.5657 57.5285,70.3991 58.5,69.5 Z"/></g>
<g><path style="opacity:1" fill="#e4e4e4" d="M 78.5,74.5 C 78.5,73.8333 78.1667,73.5 77.5,73.5C 77.3691,72.6236 77.7025,71.9569 78.5,71.5C 79.7759,72.6136 79.7759,73.6136 78.5,74.5 Z"/></g>
<g><path style="opacity:1" fill="#c2c2c2" d="M 13.5,71.5 C 14.609,71.5569 15.609,71.8902 16.5,72.5C 16.1788,74.0481 15.1788,74.7148 13.5,74.5C 13.5,73.5 13.5,72.5 13.5,71.5 Z"/></g>
<g><path style="opacity:1" fill="#626262" d="M 51.5,78.5 C 51.5,77.8333 51.1667,77.5 50.5,77.5C 48.3857,73.1666 49.719,71.1666 54.5,71.5C 54.8176,74.4815 53.8176,76.8148 51.5,78.5 Z"/></g>
<g><path style="opacity:1" fill="#dddddd" d="M 68.5,75.5 C 68.5,75.1667 68.5,74.8333 68.5,74.5C 68.3691,73.6236 68.7025,72.9569 69.5,72.5C 70.7979,74.0517 70.4646,75.0517 68.5,75.5 Z"/></g>
<g><path style="opacity:1" fill="#dddddd" d="M 26.5,76.5 C 26.5,76.8333 26.5,77.1667 26.5,77.5C 23.6846,77.2174 23.1846,76.2174 25,74.5C 26.0299,74.8361 26.5299,75.5028 26.5,76.5 Z"/></g>
<g><path style="opacity:1" fill="#d5d5d5" d="M 77.5,76.5 C 77.1583,77.3382 76.4916,77.6716 75.5,77.5C 75.281,76.325 75.6143,75.325 76.5,74.5C 77.2975,74.9569 77.6309,75.6236 77.5,76.5 Z"/></g>
<g><path style="opacity:1" fill="#cacaca" d="M 16.5,75.5 C 17.6736,77.3678 17.0069,78.3678 14.5,78.5C 13.0857,76.4017 13.7524,75.4017 16.5,75.5 Z"/></g>
<g><path style="opacity:1" fill="#595959" d="M 20.5,67.5 C 20.4017,70.2476 21.4017,70.9143 23.5,69.5C 23.8333,69.5 24.1667,69.5 24.5,69.5C 23.0857,71.5983 23.7524,72.5983 26.5,72.5C 27.6857,73.9613 27.6857,75.2946 26.5,76.5C 26.5299,75.5028 26.0299,74.8361 25,74.5C 23.1846,76.2174 23.6846,77.2174 26.5,77.5C 26.1667,78.5 25.5,79.1667 24.5,79.5C 24.0269,78.0937 23.0269,77.427 21.5,77.5C 20.8333,77.5 20.5,77.8333 20.5,78.5C 18.8212,78.2852 17.8212,78.9519 17.5,80.5C 16.2905,80.0679 15.2905,79.4013 14.5,78.5C 17.0069,78.3678 17.6736,77.3678 16.5,75.5C 17.1667,74.8333 17.8333,74.1667 18.5,73.5C 18.5,74.5 18.5,75.5 18.5,76.5C 21.5,76.8333 22.8333,75.5 22.5,72.5C 21.1667,72.5 19.8333,72.5 18.5,72.5C 17.8333,71.1667 17.1667,71.1667 16.5,72.5C 15.609,71.8902 14.609,71.5569 13.5,71.5C 14.5,70.5 15.5,69.5 16.5,68.5C 17.5676,67.5655 18.901,67.2322 20.5,67.5 Z"/></g>
<g><path style="opacity:1" fill="#f7f7f7" d="M 16.5,68.5 C 18.337,68.6395 18.6704,69.3061 17.5,70.5C 16.7025,70.0431 16.3691,69.3764 16.5,68.5 Z"/></g>
<g><path style="opacity:1" fill="#eaeaea" d="M 71.5,77.5 C 71.6395,75.663 72.3061,75.3296 73.5,76.5C 73.0431,77.2975 72.3764,77.6309 71.5,77.5 Z"/></g>
<g><path style="opacity:1" fill="#666666" d="M 85.5,74.5 C 89.9083,74.062 91.5749,76.062 90.5,80.5C 85.4673,81.0623 83.8007,79.0623 85.5,74.5 Z"/></g>
<g><path style="opacity:1" fill="#e1e1e1" d="M 21.5,77.5 C 23.0269,77.427 24.0269,78.0937 24.5,79.5C 23.791,80.404 22.791,80.7373 21.5,80.5C 21.5,79.5 21.5,78.5 21.5,77.5 Z"/></g>
<g><path style="opacity:1" fill="#cccccc" d="M 20.5,78.5 C 20.5,79.5 20.5,80.5 20.5,81.5C 19.209,81.7373 18.209,81.404 17.5,80.5C 17.8212,78.9519 18.8212,78.2852 20.5,78.5 Z"/></g>
<g><path style="opacity:1" fill="#6e6e6e" d="M 52.5,82.5 C 54.2769,82.7863 55.9436,83.4529 57.5,84.5C 58.4164,84.4573 59.0831,84.1239 59.5,83.5C 60.7095,83.9321 61.7095,84.5987 62.5,85.5C 61.71,86.6085 61.21,87.9419 61,89.5C 59.3333,90.8333 57.6667,90.8333 56,89.5C 55.8784,87.563 55.045,86.2297 53.5,85.5C 53.6107,84.8826 53.944,84.3826 54.5,84C 53.5842,83.7216 52.9175,83.2216 52.5,82.5 Z"/></g>
<g><path style="opacity:1" fill="#2b2b2b" d="M 50.5,77.5 C 51.1667,77.5 51.5,77.8333 51.5,78.5C 51.4326,79.9587 51.7659,81.2921 52.5,82.5C 52.9175,83.2216 53.5842,83.7216 54.5,84C 53.944,84.3826 53.6107,84.8826 53.5,85.5C 53.3573,87.2624 53.6906,88.9291 54.5,90.5C 51.289,91.5855 50.289,93.5855 51.5,96.5C 49.9793,96.8797 48.3126,97.0464 46.5,97C 45.9288,98.2051 45.2621,99.3717 44.5,100.5C 42.4378,98.2753 40.1045,97.942 37.5,99.5C 36.9954,97.2305 35.6621,95.8972 33.5,95.5C 32.5084,95.6716 31.8417,95.3382 31.5,94.5C 32.6527,93.6868 32.6527,92.6868 31.5,91.5C 30.5,90.8333 29.5,90.1667 28.5,89.5C 31.0142,87.1321 31.0142,84.7988 28.5,82.5C 31.8237,81.8408 33.1571,79.8408 32.5,76.5C 35.4206,76.8541 37.7539,75.8541 39.5,73.5C 41.5,76.1667 43.5,76.1667 45.5,73.5C 46.3359,75.9398 48.0025,77.2732 50.5,77.5 Z"/></g>
<g><path style="opacity:1" fill="#b8b8b8" d="M 38.5,78.5 C 47.2069,78.0365 50.7069,82.0365 49,90.5C 46.0891,94.2771 42.2558,95.4437 37.5,94C 31.8797,88.3191 32.213,83.1524 38.5,78.5 Z"/></g>
<g><path style="opacity:1" fill="#262626" d="M 38.5,80.5 C 45.8269,79.3293 48.9936,82.3293 48,89.5C 44.4221,94.1988 40.5887,94.5321 36.5,90.5C 34.8154,86.5886 35.4821,83.2553 38.5,80.5 Z"/></g>
<g><path style="opacity:1" fill="#e5e5e5" d="M 40.5,83.5 C 44.35,83.7007 45.35,85.5341 43.5,89C 42.2068,89.49 40.8734,89.6567 39.5,89.5C 39.3253,87.3792 39.6586,85.3792 40.5,83.5 Z"/></g>
<g><path style="opacity:1" fill="#979797" d="M 27.5,91.5 C 29.4305,91.7706 30.7638,92.7706 31.5,94.5C 31.8417,95.3382 32.5084,95.6716 33.5,95.5C 32.8333,96.1667 32.1667,96.8333 31.5,97.5C 30.8333,97.8333 30.1667,98.1667 29.5,98.5C 28.5549,97.0072 27.5549,95.5072 26.5,94C 26.7432,93.0979 27.0766,92.2646 27.5,91.5 Z"/></g>
<g><path style="opacity:1" fill="#353535" d="M 31.5,97.5 C 34.1681,99.1099 36.1681,101.443 37.5,104.5C 35.5412,110.619 31.8746,112.285 26.5,109.5C 22.3858,104.503 23.3858,100.837 29.5,98.5C 30.1667,98.1667 30.8333,97.8333 31.5,97.5 Z"/></g>
<g><path style="opacity:1" fill="#858585" d="M 28.5,100.5 C 29.7498,100.577 30.5831,101.244 31,102.5C 32.1544,100.043 33.4877,100.043 35,102.5C 35.8249,104.701 35.3249,106.534 33.5,108C 32.2559,108.456 31.4226,107.956 31,106.5C 29.9826,109.028 28.8159,109.028 27.5,106.5C 26.2302,104.243 26.5636,102.243 28.5,100.5 Z"/></g>
</svg>
